<svg width="140" height="56" viewBox="0 0 140 56" fill="none" xmlns="http://www.w3.org/2000/svg">
<path d="M28.1623 56C12.6065 56 0 43.1495 0 27.2926V0C15.5558 0 28.1623 12.8505 28.1623 28.7074V56Z" fill="#0880AE"/>
<path d="M30.62 32.7747V18.2737C30.62 8.19368 38.6581 0 48.5756 0V14.5011C48.5756 24.581 40.5375 32.7747 30.62 32.7747Z" fill="#F26532"/>
<path d="M71.1864 56H50.5996C39.5544 56 30.62 46.8926 30.62 35.6337H51.2068C62.252 35.6337 71.1864 44.741 71.1864 56Z" fill="#0880AE"/>
<path d="M66.0074 24.6808L60.6533 17.5675V24.6808H56.7738V8.57251H60.6533V15.64L65.9621 8.57251H70.5222L64.3513 16.4661L70.749 24.6808H66.0074Z" fill="#252525"/>
<path d="M86.3864 8.57251V24.6808H82.507V18.0494H76.4722V24.6808H72.5927V8.57251H76.4722V14.8828H82.507V8.57251H86.3864Z" fill="#252525"/>
<path d="M99.1013 21.8355H93.1573L92.2044 24.6808H88.1435L93.906 8.57251H98.398L104.161 24.6808H100.054L99.1013 21.8355ZM98.1031 18.8066L96.1293 12.9094L94.1782 18.8066H98.1031Z" fill="#252525"/>
<path d="M120.162 24.6808H116.282L109.794 14.7451V24.6808H105.914V8.57251H109.794L116.282 18.5542V8.57251H120.162V24.6808Z" fill="#252525"/>
<path d="M85.4442 32.6413V33.9722H81.043V48.6808H79.4549V33.9722H75.0309V32.6413H85.4442Z" fill="#252525"/>
<path d="M92.7038 33.9493V39.9383H98.7159V41.2692H92.7038V47.3499H99.3965V48.6808H91.1157V32.6184H99.3965V33.9493H92.7038Z" fill="#252525"/>
<path d="M104.964 40.6496C104.964 39.074 105.304 37.6666 105.984 36.4275C106.665 35.1731 107.595 34.2017 108.775 33.5133C109.955 32.8096 111.271 32.4578 112.723 32.4578C114.492 32.4578 116.005 32.8861 117.26 33.7428C118.53 34.5841 119.453 35.7773 120.028 37.3224H118.167C117.714 36.2363 117.018 35.3872 116.08 34.7753C115.158 34.1634 114.038 33.8575 112.723 33.8575C111.558 33.8575 110.507 34.1328 109.569 34.6836C108.646 35.2343 107.92 36.0297 107.391 37.07C106.862 38.0949 106.597 39.2881 106.597 40.6496C106.597 42.0111 106.862 43.2043 107.391 44.2292C107.92 45.2542 108.646 46.042 109.569 46.5927C110.507 47.1434 111.558 47.4188 112.723 47.4188C114.038 47.4188 115.158 47.1205 116.08 46.5239C117.018 45.912 117.714 45.0706 118.167 43.9998H120.028C119.453 45.5295 118.53 46.7151 117.26 47.5565C115.989 48.3978 114.477 48.8185 112.723 48.8185C111.271 48.8185 109.955 48.4743 108.775 47.7859C107.595 47.0822 106.665 46.1108 105.984 44.8717C105.304 43.6326 104.964 42.2253 104.964 40.6496Z" fill="#252525"/>
<path d="M138.131 32.6413V48.6808H136.543V41.1774H127.944V48.6808H126.356V32.6413H127.944V39.8465H136.543V32.6413H138.131Z" fill="#252525"/>
</svg>
